<?xml version="1.0" encoding="utf-8"?>
<svg version="1.1" id="Layer_1"
xmlns="http://www.w3.org/2000/svg"
xmlns:xlink="http://www.w3.org/1999/xlink"
width="1200px" height="1200px"
xml:space="preserve">
<g id="PathID_1" transform="matrix(1.02641, 0, 0, 1.02641, 597.5, 601.5)" opacity="1">
<path style="fill:#FFFDFD;fill-opacity:1" d="M402.25 407.55Q235.55 576.45 0 576.45Q-235.55 576.45 -402.25 407.55Q-568.95 238.65 -568.95 0Q-568.95 -238.65 -402.25 -407.55Q-235.55 -576.45 0 -576.45Q235.55 -576.45 402.25 -407.55Q568.95 -238.65 568.95 0Q568.95 238.65 402.25 407.55" />
</g>
<g id="PathID_2" transform="matrix(1.02641, 0, 0, 1.02641, 597.5, 601.5)" opacity="1">
<path style="fill:none;stroke-width:1;stroke-linecap:round;stroke-linejoin:round;stroke-miterlimit:3;stroke:#000000;stroke-opacity:1" d="M402.25 407.55Q235.55 576.45 0 576.45Q-235.55 576.45 -402.2 407.55Q-568.9 238.65 -568.9 0Q-568.9 -238.65 -402.2 -407.55Q-235.55 -576.45 0 -576.45Q235.55 -576.45 402.25 -407.55Q568.95 -238.65 568.95 0Q568.95 238.65 402.25 407.55z" />
</g>
<g id="PathID_3" transform="matrix(22.3836, 0, 0, 22.3836, 1404.4, -77.6)" opacity="1">
<path style="fill:#FFD040;fill-opacity:1" d="M5.55 7.1L5.55 50.5L31.4 50.5L31.4 7.1L5.55 7.1M32.3 0Q34.2 0 35.6 1.4Q36.95 2.75 36.95 4.7L36.95 57.1Q36.95 59.05 35.6 60.4Q34.2 61.75 32.3 61.75L4.7 61.75Q2.75 61.75 1.4 60.4Q0 59.05 0 57.1L0 4.7Q0 2.75 1.4 1.4Q2.75 0 4.7 0L32.3 0M20.35 54.8L20.05 54.25L18.85 53.4Q18.5 53.15 18.1 53.4L16.9 54.25Q16.65 54.5 16.65 54.8L16.65 56.9Q16.65 57.6 17.3 57.6L19.7 57.6Q20.35 57.6 20.35 56.9L20.35 54.8" />
</g>
<g id="PathID_4" transform="matrix(22.3836, 0, 0, 22.3836, 1404.4, -77.6)" opacity="1">
</g>
<g id="PathID_5" transform="matrix(1, 0, 0, 1, 1441.25, 345.4)" opacity="1">
<path style="fill:#4A7EBC;fill-opacity:1" d="M50.85 2.45Q50.4 2.45 50.4 2.95L50.4 3.8Q48.8 3.9 47.75 4.7Q46.6 5.65 46.6 7.2Q46.6 9.75 50.4 10.45L50.4 13.8Q48.95 13.7 48.55 12.55Q48.1 11.45 47.35 11.45Q46.35 11.45 46.35 12.5Q46.35 13.55 47.35 14.4Q48.5 15.35 50.4 15.4L50.4 16.4Q50.4 16.95 50.85 16.95Q51.35 16.95 51.35 16.4L51.35 15.4Q55.35 15.25 55.35 12.05Q55.35 10.35 54.15 9.5Q53.3 8.9 51.35 8.5L51.35 5.45Q52.35 5.5 53.05 6.35Q53.7 7.2 54.15 7.2Q55.15 7.2 55.15 6.2Q55.15 5.15 53.7 4.45Q52.55 3.85 51.35 3.8L51.35 2.95Q51.35 2.45 50.85 2.45M53.3 12.2Q53.3 12.95 52.7 13.4L51.35 13.8L51.35 10.6Q53.3 11.05 53.3 12.2M60.55 9.7Q60.55 13.7 57.7 16.55Q54.85 19.4 50.85 19.4Q46.85 19.4 44 16.55Q41.15 13.7 41.15 9.7Q41.15 5.7 44 2.85Q46.85 0 50.85 0Q54.85 0 57.7 2.85Q60.55 5.7 60.55 9.7M50.4 5.45L50.4 8.35Q48.6 8 48.6 6.8Q48.6 6.3 49.1 5.9Q49.6 5.5 50.4 5.45M46.65 22.3L55 22.3Q56.15 22.3 57 23.1Q57.8 23.9 57.8 25.05L57.8 58.5Q57.8 59.65 57 60.45Q56.15 61.25 55 61.25L46.65 61.25Q45.5 61.25 44.7 60.45Q43.9 59.65 43.9 58.5L43.9 25.05Q43.9 23.9 44.7 23.1Q45.5 22.3 46.65 22.3M30 13.4Q30.55 12.7 31.4 12.85L38.3 14.3Q38.95 14.45 39.25 15Q39.6 15.65 39.3 16.2L36.65 22.75Q36.35 23.5 35.45 23.6L35.35 23.6Q34.55 23.6 34.15 22.85L32.75 20.2L2.05 36.05L1.4 36.2Q0.55 36.2 0.15 35.45L0 34.85L0 34.75Q0 33.95 0.75 33.6L31.4 17.75L29.9 14.9Q29.5 14.1 30 13.4M3.45 43.15L11.85 43.15Q13 43.15 13.8 43.95Q14.6 44.8 14.6 45.95L14.6 58.5Q14.6 59.65 13.8 60.45Q13 61.25 11.85 61.25L3.45 61.25Q2.35 61.25 1.5 60.45Q0.7 59.65 0.7 58.5L0.7 45.95Q0.7 44.8 1.5 43.95Q2.3 43.15 3.45 43.15M25.05 33.4L33.4 33.4Q34.55 33.4 35.4 34.2Q36.2 35.05 36.2 36.2L36.2 58.5Q36.2 59.65 35.4 60.45Q34.55 61.25 33.4 61.25L25.05 61.25Q23.95 61.25 23.1 60.45Q22.3 59.65 22.3 58.5L22.3 36.2Q22.3 35.05 23.1 34.2Q23.9 33.4 25.05 33.4" />
</g>
<g id="PathID_6" transform="matrix(1, 0, 0, 1, 1441.25, 345.4)" opacity="1">
</g>
<g id="PathID_7" transform="matrix(0.977654, 0, 0, 0.977654, 1314.85, 310.55)" opacity="1">
<path style="fill:#4A7EBC;fill-opacity:1" d="M41.9 21.2Q42.85 20.25 44.2 20.25Q45.55 20.25 46.5 21.2Q47.45 22.15 47.45 23.5L47.2 24.7L49.45 27.65L49.55 27.65L53.95 18.8Q53.4 17.95 53.4 16.95Q53.4 15.6 54.35 14.65Q55.3 13.7 56.65 13.7Q58 13.7 58.95 14.65Q59.9 15.6 59.9 16.95Q59.9 18.25 59.05 19.2Q58.2 20.15 56.9 20.2L52.45 29.1Q53.05 29.85 53.05 30.9Q53.05 32.25 52.1 33.25Q51.1 34.2 49.75 34.2Q48.45 34.2 47.45 33.25Q46.5 32.25 46.5 30.9Q46.5 30.2 46.8 29.6L44.7 26.75L43.65 26.7L41.35 29.65L41.65 30.9Q41.65 32.25 40.7 33.25Q39.7 34.2 38.35 34.2Q37 34.2 36.05 33.25Q35.1 32.25 35.1 30.9Q35.1 30 35.55 29.25L29.55 16.85L23.6 31.05Q24.3 31.9 24.3 33.05Q24.3 34.4 23.35 35.35Q22.4 36.3 21.05 36.3Q19.7 36.3 18.75 35.35Q17.75 34.4 17.75 33.05Q17.75 31.8 18.6 30.9Q19.4 29.95 20.6 29.8L26.85 14.75Q26.25 13.95 26.25 12.85Q26.25 11.5 27.2 10.55Q28.15 9.6 29.5 9.6Q30.85 9.6 31.8 10.55Q32.75 11.5 32.75 12.85Q32.75 13.95 32.15 14.75L38.4 27.65L38.75 27.7L41.15 24.65L40.9 23.5Q40.9 22.15 41.9 21.2M61.95 44.65Q61.2 45.35 60.2 45.35L15 45.35L15 51.7Q15 52.7 14.3 53.45Q13.55 54.15 12.55 54.15Q11.55 54.15 10.8 53.45Q10.1 52.7 10.1 51.7L10.1 45.35L2.45 45.35Q1.45 45.35 0.7 44.65Q0 43.9 0 42.9Q0 41.9 0.7 41.15Q1.45 40.45 2.45 40.45L10.1 40.45L10.1 2.45Q10.1 1.45 10.8 0.7Q11.55 0 12.55 0Q13.55 0 14.3 0.7Q15 1.45 15 2.45L15 40.45L60.2 40.45Q61.2 40.45 61.95 41.15Q62.65 41.9 62.65 42.9Q62.65 43.9 61.95 44.65" />
</g>
<g id="PathID_8" transform="matrix(0.977654, 0, 0, 0.977654, 1314.85, 310.55)" opacity="1">
</g>
<g id="PathID_9" transform="matrix(16.8429, 0, -0.939389, 16.8166, 109.6, 100.9)" opacity="1">
<path style="fill:#00C7C7;fill-opacity:1" d="M41.9 21.2Q42.85 20.25 44.2 20.25Q45.55 20.25 46.5 21.2Q47.45 22.15 47.45 23.5L47.2 24.7L49.45 27.65L49.55 27.65L53.95 18.8Q53.4 17.95 53.4 16.95Q53.4 15.6 54.35 14.65Q55.3 13.7 56.65 13.7Q58 13.7 58.95 14.65Q59.9 15.6 59.9 16.95Q59.9 18.25 59.05 19.2Q58.2 20.15 56.9 20.2L52.45 29.1Q53.05 29.85 53.05 30.9Q53.05 32.25 52.1 33.25Q51.1 34.2 49.75 34.2Q48.45 34.2 47.45 33.25Q46.5 32.25 46.5 30.9Q46.5 30.2 46.8 29.6L44.7 26.75L43.65 26.7L41.35 29.65L41.65 30.9Q41.65 32.25 40.7 33.25Q39.7 34.2 38.35 34.2Q37 34.2 36.05 33.25Q35.1 32.25 35.1 30.9Q35.1 30 35.55 29.25L29.55 16.85L23.6 31.05Q24.3 31.9 24.3 33.05Q24.3 34.4 23.35 35.35Q22.4 36.3 21.05 36.3Q19.7 36.3 18.75 35.35Q17.75 34.4 17.75 33.05Q17.75 31.8 18.6 30.9Q19.4 29.95 20.6 29.8L26.85 14.75Q26.25 13.95 26.25 12.85Q26.25 11.5 27.2 10.55Q28.15 9.6 29.5 9.6Q30.85 9.6 31.8 10.55Q32.75 11.5 32.75 12.85Q32.75 13.95 32.15 14.75L38.4 27.65L38.75 27.7L41.15 24.65L40.9 23.5Q40.9 22.15 41.9 21.2M61.95 44.65Q61.2 45.35 60.2 45.35L15 45.35L15 51.7Q15 52.7 14.3 53.45Q13.55 54.15 12.55 54.15Q11.55 54.15 10.8 53.45Q10.1 52.7 10.1 51.7L10.1 45.35L2.45 45.35Q1.45 45.35 0.7 44.65Q0 43.9 0 42.9Q0 41.9 0.7 41.15Q1.45 40.45 2.45 40.45L10.1 40.45L10.1 2.45Q10.1 1.45 10.8 0.7Q11.55 0 12.55 0Q13.55 0 14.3 0.7Q15 1.45 15 2.45L15 40.45L60.2 40.45Q61.2 40.45 61.95 41.15Q62.65 41.9 62.65 42.9Q62.65 43.9 61.95 44.65" />
</g>
<g id="PathID_10" transform="matrix(16.8429, 0, -0.939389, 16.8166, 109.6, 100.9)" opacity="1">
</g>
<g id="PathID_11" transform="matrix(15.3704, 0, 0, 15.3704, 1231.3, 160.25)" opacity="1">
<path style="fill:#4A7EBC;fill-opacity:1" d="M57.1 10.4Q57.6 10.7 57.6 11.25L57.7 20.15Q57.7 20.7 57.2 21L56.25 21.05L48.5 16.65Q48 16.4 47.95 15.8Q47.95 15.25 48.45 14.95L50 14.05Q45.9 9.45 40.35 7.1Q35.3 4.95 29.75 4.95Q21.55 4.95 14.7 9.45Q7.9 13.95 4.65 21.5Q4.05 23 2.4 23L1.1 22.65Q0.35 22.15 0.1 21.25Q-0.15 20.35 0.2 19.5Q4 10.6 12.05 5.3Q20.05 0 29.75 0Q36.25 0 42.25 2.55Q49.4 5.65 54.3 11.5L56.15 10.4Q56.65 10.15 57.1 10.4M42.35 43.95Q37.15 49.15 29.85 49.15Q22.55 49.15 17.35 43.95Q12.2 38.75 12.2 31.45Q12.2 24.15 17.35 19Q22.55 13.8 29.85 13.8Q37.15 13.8 42.35 19Q47.5 24.15 47.5 31.45Q47.5 38.75 42.35 43.95M59.1 42.2Q59.3 43.1 58.9 43.9Q54.8 52.25 47.05 57.05Q39.3 61.9 30 61.9Q22.7 61.9 15.95 58.65Q9.05 55.2 4.4 49.1L2.55 50.05L1.55 50Q1.05 49.7 1.1 49.15L1.5 40.25Q1.5 39.7 2 39.4L3 39.45L10.5 44.25Q11 44.55 10.95 45.1Q10.95 45.7 10.45 45.95L8.8 46.75Q12.55 51.5 18.15 54.2Q23.65 56.95 30 56.95Q37.75 56.95 44.4 52.85Q51.05 48.7 54.45 41.8Q54.95 40.8 55.8 40.45Q57 40 58.15 40.75Q58.85 41.3 59.1 42.2M29.1 24.2L29.85 24.8Q30.3 25 30.05 25.9L29.5 27.25Q28.95 28 28.3 28.05L26.7 26.85Q25.35 25.5 23.75 25.45Q22.7 25.4 21.95 26.6Q21.15 27.9 22.2 28.9Q22.6 29.3 23.95 28.9Q25.15 28.55 25.4 29.35L25.7 31.5Q26 33 27.05 33.55L30.15 35Q32.15 36.25 32.5 38.45Q32.7 39.75 31.2 40.6L28.8 42.05L27.9 43.5L27.4 44.65Q26.95 45.35 26.05 45.2Q25.15 45 25.35 44.15Q25.55 43.15 25.05 41.95Q24.6 41 25.15 40.05Q25.55 39.35 24.05 38.5Q22.3 37.5 22.25 36.85Q22.15 36.2 23.35 35.35Q24.55 34.5 24.3 33.5Q24.1 32.55 22 31.95Q19.45 31.2 18.35 30.05Q17.6 29.3 17 27.95Q16.15 26.1 16.15 24.3Q14.4 27.55 14.4 31.45Q14.4 37.85 18.9 42.4Q23.45 46.95 29.85 46.95Q35.85 46.95 40.35 42.85L39.95 42.4Q39.6 41.95 39.8 41.2L40.1 40Q40.1 39.6 39.4 39.35Q38.65 39.1 38.65 38.9Q38.55 37.9 39.15 37.35L40.25 36.6Q40.7 36.15 40.1 35.3Q39.5 34.5 38.85 34.6Q37.95 34.7 37 34.25Q35.75 33.65 35.9 32.45Q36.05 31.2 34.55 30.55Q32.85 29.8 32.75 29.5Q32.3 28.45 32.9 27.3Q33.45 26.15 34.5 25.85Q36.05 25.35 37.1 24.35Q38.25 23.2 38.2 21.95Q37.9 18.8 35.65 17.1Q33.2 16.15 30.75 16Q27.75 16.2 27.9 17.15Q27.95 17.95 30.4 19.05Q32.55 20.1 32.15 20.95L30.2 22.45Q28.7 23.45 29.1 24.2" />
</g>
<g id="PathID_12" transform="matrix(15.3704, 0, 0, 15.3704, 1231.3, 160.25)" opacity="1">
</g>
</svg>